# xmcd CD database file
#
# Track frame offsets:
#	150
#	18335
#	26100
#	37565
#	53937
#	68142
#	77970
#	97447
#	111667
#	124615
#	141805
#	154370
#	171115
#	184612
#	197490
#	218675
#	232977
#	244870
#	261670
#	271982
#	283890
#	299092
#
# Disc length: 4230 seconds
#
# Revision: 0
# Processed by: cddbd v1.5.1PL2 Copyright (c) Steve Scherf et al.
# Submitted via: cdripper 1,0,32,406
#
DISCID=55108416
DTITLE=Acker Bilk - The Acker Bilk Collection
DYEAR=2000
DGENRE=Jazz
TTITLE0=Cry Me A River
TTITLE1=The Simple Life
TTITLE2=The Way You Look Tonight
TTITLE3=Begin The Beguine
TTITLE4=The Folks Who live on the Hill
TTITLE5=No matter what
TTITLE6=My heart will go on
TTITLE7=Stranger on the shore
TTITLE8=Summertime
TTITLE9=night and day
TTITLE10=I wonder who's kissing her now
TTITLE11=Long ago and far away
TTITLE12=Fly me to moon (in other words)
TTITLE13=Body and soul
TTITLE14=Stardust
TTITLE15=Embraceable you
TTITLE16=I'll get by (as long as I have you)
TTITLE17=That ole devil called love
TTITLE18=Ole buttermilk sky
TTITLE19=Pennies from heaven
TTITLE20=South of the border (down Mexico way)
TTITLE21=Try a little tenderness
EXTD=YEAR: 2000
EXTT0=
EXTT1=
EXTT2=
EXTT3=
EXTT4=
EXTT5=
EXTT6=
EXTT7=
EXTT8=
EXTT9=
EXTT10=
EXTT11=
EXTT12=
EXTT13=
EXTT14=
EXTT15=
EXTT16=
EXTT17=
EXTT18=
EXTT19=
EXTT20=
EXTT21=
PLAYORDER=
